<svg width="1779" height="2207" viewBox="0 0 1779 2207" fill="none" xmlns="http://www.w3.org/2000/svg">
<path id="sideFrame" d="M1507.43 29.7627C1501.34 16.7866 1488.3 8.49612 1473.96 8.48429L300.04 7.5153C286.03 7.50374 273.215 15.4062 266.935 27.9298L194.306 172.766C191.262 178.834 187.328 184.413 182.633 189.316L36.8066 341.594C25.4146 353.49 18.7887 369.03 18.2825 385.548C15.6908 470.122 7 778.396 7 1109.5C7 1439.5 15.6331 1746.83 18.2565 1832.6C18.7778 1849.65 25.8169 1865.7 37.8639 1877.71L182.256 2021.68C187.244 2026.65 191.428 2032.37 194.66 2038.63L266.904 2178.49C273.25 2190.78 285.918 2198.5 299.747 2198.52L1474.16 2199.48C1488.36 2199.5 1501.32 2191.38 1507.5 2178.59L1573.8 2041.47C1577.4 2034.02 1582.32 2027.3 1588.34 2021.62L1739.39 1879C1752.2 1866.91 1759.74 1850.28 1760.3 1832.64C1762.99 1747.21 1771.5 1449.96 1771.5 1110.5C1771.5 769.983 1762.94 471.942 1760.28 387.57C1759.74 370.468 1752.63 354.282 1740.48 342.268L1587.91 191.405C1582.22 185.778 1577.57 179.191 1574.17 171.946L1507.43 29.7627Z" fill="url(#paint0_linear_0_1)" stroke="url(#paint1_linear_0_1)" stroke-width="14"/>
<path id="frontPanelSide" d="M195.431 235.226C204.771 226.106 217.308 221 230.362 221H1549.04C1562.15 221 1574.74 226.15 1584.09 235.339L1697.26 346.564C1706.4 355.549 1711.74 367.522 1712.15 380.334C1714.84 464.352 1725 801.333 1725 1105.37C1725 1409.66 1714.83 1752.58 1712.14 1837.76C1711.74 1850.66 1706.34 1862.72 1697.09 1871.73L1584.06 1981.82C1574.72 1990.91 1562.21 1996 1549.17 1996H229.923C217.13 1996 204.824 1991.1 195.537 1982.3L79.0072 1871.91C69.3969 1862.8 63.7935 1850.41 63.4388 1837.18C61.0686 1748.77 52 1391.81 52 1105.37C52 818.972 61.0665 469.992 63.4379 383.61C63.7937 370.651 69.1843 358.498 78.4595 349.441L195.431 235.226Z" fill="url(#paint2_linear_0_1)"/>
<path id="frontPanel" d="M89.0003 430.864C91.0589 362.399 140.001 316 202.863 316H1574.66C1606.22 316 1633.33 326.878 1653.21 346.564C1673.1 366.263 1685.94 394.981 1688.53 430.989C1691.16 467.478 1693.53 617.747 1695.24 759.064C1696.09 829.684 1696.78 898.018 1697.26 948.697C1697.5 974.036 1697.68 994.961 1697.81 1009.55C1697.87 1016.85 1697.92 1022.56 1697.95 1026.45L1697.99 1030.88L1698 1032.01L1698 1032.3L1698 1032.37L1698 1032.38V1032.39V1032.4L1698 1032.51L1698 1032.91L1698 1034.52L1697.99 1040.78C1697.98 1046.27 1697.97 1054.34 1697.96 1064.63C1697.93 1085.21 1697.88 1114.68 1697.81 1150.27C1697.67 1221.45 1697.44 1317.09 1697.08 1414.91C1696.36 1610.64 1695.1 1814.91 1693.01 1849.82C1692.82 1852.9 1691.53 1856.52 1688.85 1860.98C1686.18 1865.43 1682.26 1870.5 1677.08 1876.47C1669.56 1885.12 1659.6 1895.4 1647.33 1908.05C1642.67 1912.87 1637.66 1918.03 1632.34 1923.58C1629.26 1926.78 1626.32 1929.85 1623.51 1932.79C1608.69 1948.28 1597.41 1960.06 1587.54 1968.6C1575.86 1978.7 1566.52 1983.91 1556.1 1985.3C1555.59 1985.37 1553.83 1985.46 1550.65 1985.56C1547.55 1985.65 1543.29 1985.74 1537.92 1985.84C1527.2 1986.02 1512.12 1986.2 1493.3 1986.38C1455.66 1986.73 1403.09 1987.06 1340.58 1987.36C1215.55 1987.95 1050.74 1988.4 885.997 1988.57C721.249 1988.74 556.567 1988.64 431.793 1988.14C369.405 1987.88 317.001 1987.53 279.557 1987.06C260.833 1986.82 245.862 1986.56 235.258 1986.26C229.953 1986.11 225.76 1985.96 222.743 1985.8C221.233 1985.72 220.04 1985.63 219.161 1985.55C218.721 1985.51 218.381 1985.47 218.129 1985.44C217.98 1985.42 217.889 1985.4 217.842 1985.39C217.807 1985.39 217.798 1985.38 217.807 1985.39C208.314 1982.71 196.15 1974 182.163 1961.05C168.284 1948.2 152.993 1931.54 137.26 1913.53C133.758 1909.52 130.384 1905.68 127.15 1902C115.784 1889.06 106.157 1878.11 98.8403 1868.7C94.1507 1862.66 90.4919 1857.36 87.9688 1852.68C85.4343 1847.97 84.1551 1844.08 83.9964 1840.83C80.8427 1776.21 79 1326.86 79 1032.9C79 757.365 85.9412 530.795 88.5424 445.89C88.7153 440.246 88.869 435.228 89.0003 430.864Z" fill="url(#paint3_linear_0_1)" stroke="url(#paint4_linear_0_1)" stroke-width="6"/>
<path id="screenFrame" d="M125.499 473.091C127.451 408.675 173.854 365 233.5 365H1536.5C1566.44 365 1592.16 375.242 1611.01 393.765C1629.87 412.297 1642.05 439.321 1644.51 473.217C1647 507.6 1649.25 649.218 1650.88 782.412C1651.69 848.971 1652.34 913.374 1652.8 961.138C1653.02 985.02 1653.2 1004.74 1653.32 1018.49C1653.38 1025.37 1653.42 1030.75 1653.45 1034.42L1653.49 1038.59L1653.5 1039.66L1653.5 1039.93L1653.5 1039.99V1040L1653.5 1040.02L1653.5 1040.06L1653.5 1040.33L1653.49 1041.41L1653.44 1045.62C1653.41 1049.32 1653.35 1054.74 1653.28 1061.67C1653.13 1075.52 1652.92 1095.39 1652.66 1119.44C1652.13 1167.53 1651.38 1232.34 1650.5 1299.21C1648.75 1433.02 1646.5 1574.91 1644.51 1607.82C1640.59 1672.39 1596.07 1716 1536.5 1716H233.5C173.985 1716 128.427 1667.45 125.496 1607.85C122.5 1546.92 116 1317.47 116 1040.5C116 780.812 122.593 567.275 125.064 487.253C125.228 481.934 125.374 477.204 125.499 473.091Z" fill="url(#paint5_linear_0_1)" stroke="url(#paint6_linear_0_1)" stroke-width="6"/>
<path id="glass" d="M158.999 481.604L159 481.552V481.5C159 459.629 166.572 440.838 179.642 427.546C192.684 414.282 211.684 406 235.5 406C336.79 406.002 504.803 406.001 666.585 406.001C745.184 406 822.312 406 889.603 406H1538C1579.69 406 1612 436.002 1612 474.5C1612 551.09 1613.21 666.428 1614.44 783.853C1615.42 876.581 1616.4 970.611 1616.82 1047.89C1616.16 1221.61 1614.23 1466.95 1612.5 1600.4L1612.5 1600.45V1600.5C1612.5 1621.52 1605.58 1640.4 1593.27 1653.93C1581.05 1667.37 1563.11 1676 1540 1676H889.603C786.709 1676 660.312 1675.88 540.823 1675.75L513.007 1675.72C404.003 1675.61 302.886 1675.5 233.5 1675.5C189.853 1675.5 159 1642.52 159 1604C159 1528.21 157.56 1415.35 156.088 1300.07C154.912 1207.9 153.716 1114.19 153.22 1036.64C154.122 862.804 157.261 615.734 158.999 481.604Z" fill="url(#paint7_linear_0_1)" stroke="url(#paint8_linear_0_1)" stroke-width="16"/>
<rect id="screen" x="319.5" y="601.5" width="1138" height="879" rx="104.5" fill="#D3D3C7" stroke="url(#paint9_linear_0_1)" stroke-width="5"/>
<g id="text">
<path id="arrowDown" d="M373.395 1554.64C372.619 1555.4 371.381 1555.4 370.605 1554.64L337.526 1522.43C336.24 1521.18 337.126 1519 338.921 1519H405.079C406.874 1519 407.76 1521.18 406.474 1522.43L373.395 1554.64Z" fill="#3E3E3E"/>
<path id="arrowUp" d="M1395.4 1521.36C1394.62 1520.6 1393.38 1520.6 1392.6 1521.36L1359.53 1553.57C1358.24 1554.82 1359.13 1557 1360.92 1557H1427.08C1428.87 1557 1429.76 1554.82 1428.47 1553.57L1395.4 1521.36Z" fill="#3E3E3E"/>
<path id="SET" d="M340.1 1644.92C337.401 1644.92 334.795 1644.46 332.28 1643.54C329.827 1642.62 327.925 1641.3 326.576 1639.58C326.085 1638.91 325.84 1638.23 325.84 1637.56C325.84 1636.76 326.147 1636.09 326.76 1635.54C327.435 1634.92 328.171 1634.62 328.968 1634.62C329.397 1634.62 329.827 1634.71 330.256 1634.89C330.685 1635.01 331.023 1635.26 331.268 1635.63C332.249 1636.79 333.568 1637.71 335.224 1638.39C336.941 1639.06 338.72 1639.4 340.56 1639.4C342.707 1639.4 344.455 1638.88 345.804 1637.84C347.215 1636.79 347.92 1635.41 347.92 1633.7C347.92 1631.73 347.092 1630.35 345.436 1629.56C343.841 1628.7 341.971 1628.08 339.824 1627.72C337.861 1627.35 335.868 1626.83 333.844 1626.15C331.82 1625.42 330.133 1624.37 328.784 1623.02C327.435 1621.61 326.76 1619.71 326.76 1617.32C326.76 1614.07 327.987 1611.49 330.44 1609.59C332.955 1607.69 336.297 1606.74 340.468 1606.74C342.676 1606.74 344.7 1607.08 346.54 1607.75C348.38 1608.37 349.913 1609.22 351.14 1610.33C351.876 1610.94 352.244 1611.71 352.244 1612.63C352.244 1613.36 351.968 1614.01 351.416 1614.56C350.864 1615.11 350.22 1615.39 349.484 1615.39C348.748 1615.39 348.043 1615.14 347.368 1614.65C345.405 1613.06 342.983 1612.26 340.1 1612.26C335.193 1612.26 332.74 1613.92 332.74 1617.23C332.74 1618.82 333.476 1619.93 334.948 1620.54C336.481 1621.09 338.536 1621.67 341.112 1622.29C342.339 1622.53 343.657 1622.9 345.068 1623.39C346.54 1623.82 347.951 1624.47 349.3 1625.32C350.649 1626.12 351.753 1627.23 352.612 1628.64C353.471 1629.99 353.9 1631.7 353.9 1633.79C353.9 1637.1 352.612 1639.8 350.036 1641.88C347.521 1643.91 344.209 1644.92 340.1 1644.92ZM367.204 1644C365.671 1644 364.444 1643.54 363.524 1642.62C362.604 1641.7 362.144 1640.47 362.144 1638.94V1611.98C362.144 1610.57 362.604 1609.44 363.524 1608.58C364.505 1607.66 365.64 1607.2 366.928 1607.2H380.82C381.863 1607.2 382.599 1607.48 383.028 1608.03C383.519 1608.52 383.764 1609.16 383.764 1609.96C383.764 1610.7 383.488 1611.34 382.936 1611.89C382.445 1612.44 381.74 1612.72 380.82 1612.72H370.976C369.381 1612.72 368.584 1613.52 368.584 1615.11V1620.17C368.584 1621.77 369.32 1622.56 370.792 1622.56H379.9C380.943 1622.56 381.679 1622.84 382.108 1623.39C382.599 1623.94 382.844 1624.59 382.844 1625.32C382.844 1626 382.568 1626.64 382.016 1627.26C381.525 1627.81 380.82 1628.08 379.9 1628.08H370.792C369.32 1628.08 368.584 1628.85 368.584 1630.38V1636C368.584 1637.59 369.351 1638.39 370.884 1638.39H381.74C382.783 1638.39 383.519 1638.69 383.948 1639.31C384.439 1639.86 384.684 1640.5 384.684 1641.24C384.684 1641.98 384.408 1642.62 383.856 1643.17C383.365 1643.72 382.66 1644 381.74 1644H367.204ZM404.493 1644.92C403.511 1644.92 402.714 1644.64 402.101 1644.09C401.549 1643.54 401.273 1642.83 401.273 1641.98V1615.2C401.273 1613.67 400.475 1612.9 398.881 1612.9H393.085C391.183 1612.9 390.233 1611.95 390.233 1610.05C390.233 1608.15 391.183 1607.2 393.085 1607.2H415.809C416.667 1607.2 417.373 1607.48 417.925 1608.03C418.477 1608.52 418.753 1609.19 418.753 1610.05C418.753 1610.91 418.477 1611.62 417.925 1612.17C417.373 1612.66 416.667 1612.9 415.809 1612.9H410.105C408.51 1612.9 407.713 1613.67 407.713 1615.2V1641.98C407.713 1642.83 407.406 1643.54 406.793 1644.09C406.241 1644.64 405.474 1644.92 404.493 1644.92Z" fill="#3E3E3E"/>
<path id="MODE" d="M638.98 1645.92C637.999 1645.92 637.171 1645.58 636.496 1644.91C635.883 1644.17 635.637 1643.31 635.76 1642.33L639.716 1611.42C639.839 1610.19 640.299 1609.27 641.096 1608.66C641.955 1608.05 642.875 1607.74 643.856 1607.74C644.837 1607.74 645.727 1607.99 646.524 1608.48C647.383 1608.91 647.965 1609.58 648.272 1610.5L655.54 1631.11C655.847 1631.84 656.153 1632.21 656.46 1632.21C656.828 1632.21 657.135 1631.84 657.38 1631.11L664.648 1610.5C664.955 1609.58 665.507 1608.91 666.304 1608.48C667.163 1607.99 668.052 1607.74 668.972 1607.74C669.953 1607.74 670.873 1608.05 671.732 1608.66C672.591 1609.27 673.081 1610.19 673.204 1611.42L677.16 1642.33C677.283 1643.31 677.037 1644.17 676.424 1644.91C675.811 1645.58 674.983 1645.92 673.94 1645.92C673.143 1645.92 672.407 1645.64 671.732 1645.09C671.119 1644.54 670.751 1643.83 670.628 1642.98L668.604 1620.25C668.543 1619.52 668.297 1619.15 667.868 1619.15C667.439 1619.15 667.132 1619.45 666.948 1620.07L660.324 1638.38C659.956 1639.36 659.435 1640.06 658.76 1640.49C658.085 1640.92 657.319 1641.14 656.46 1641.14C654.804 1641.14 653.547 1640.22 652.688 1638.38L645.972 1620.07C645.727 1619.45 645.42 1619.15 645.052 1619.15C644.807 1619.15 644.623 1619.52 644.5 1620.25L642.292 1642.98C642.231 1643.83 641.863 1644.54 641.188 1645.09C640.575 1645.64 639.839 1645.92 638.98 1645.92ZM700.506 1645.92C696.949 1645.92 693.698 1645.09 690.754 1643.44C687.872 1641.72 685.572 1639.42 683.854 1636.54C682.137 1633.59 681.278 1630.28 681.278 1626.6C681.278 1622.74 682.137 1619.36 683.854 1616.48C685.572 1613.6 687.872 1611.36 690.754 1609.76C693.698 1608.11 696.949 1607.28 700.506 1607.28C704.064 1607.28 707.253 1608.11 710.074 1609.76C712.957 1611.36 715.226 1613.6 716.882 1616.48C718.6 1619.36 719.458 1622.74 719.458 1626.6C719.458 1630.28 718.6 1633.59 716.882 1636.54C715.226 1639.42 712.957 1641.72 710.074 1643.44C707.253 1645.09 704.064 1645.92 700.506 1645.92ZM700.506 1640.31C702.96 1640.31 705.106 1639.69 706.946 1638.47C708.848 1637.18 710.32 1635.49 711.362 1633.41C712.405 1631.32 712.926 1629.05 712.926 1626.6C712.926 1622.67 711.761 1619.42 709.43 1616.85C707.1 1614.27 704.125 1612.98 700.506 1612.98C696.826 1612.98 693.821 1614.27 691.49 1616.85C689.16 1619.42 687.994 1622.67 687.994 1626.6C687.994 1629.05 688.516 1631.32 689.558 1633.41C690.601 1635.49 692.073 1637.18 693.974 1638.47C695.876 1639.69 698.053 1640.31 700.506 1640.31ZM730.3 1645C729.012 1645 727.785 1644.57 726.62 1643.71C725.516 1642.85 724.964 1641.63 724.964 1640.03V1612.98C724.964 1611.57 725.424 1610.44 726.344 1609.58C727.325 1608.66 728.46 1608.2 729.748 1608.2H738.028C741.708 1608.2 744.928 1608.97 747.688 1610.5C750.509 1611.97 752.687 1614.09 754.22 1616.85C755.815 1619.61 756.612 1622.92 756.612 1626.78C756.612 1630.16 755.876 1633.22 754.404 1635.98C752.993 1638.74 751 1640.95 748.424 1642.61C745.909 1644.2 742.996 1645 739.684 1645H730.3ZM734.072 1639.3H738.12C742.107 1639.3 745.143 1638.25 747.228 1636.17C749.313 1634.02 750.325 1630.89 750.264 1626.78C750.203 1622.61 749.129 1619.42 747.044 1617.22C744.959 1615.01 741.953 1613.9 738.028 1613.9H734.164C732.324 1613.9 731.404 1614.82 731.404 1616.66V1636.54C731.404 1638.38 732.293 1639.3 734.072 1639.3ZM767.198 1645C765.664 1645 764.438 1644.54 763.518 1643.62C762.598 1642.7 762.138 1641.47 762.138 1639.94V1612.98C762.138 1611.57 762.598 1610.44 763.518 1609.58C764.499 1608.66 765.634 1608.2 766.922 1608.2H780.814C781.856 1608.2 782.592 1608.48 783.022 1609.03C783.512 1609.52 783.758 1610.16 783.758 1610.96C783.758 1611.7 783.482 1612.34 782.93 1612.89C782.439 1613.44 781.734 1613.72 780.814 1613.72H770.97C769.375 1613.72 768.578 1614.52 768.578 1616.11V1621.17C768.578 1622.77 769.314 1623.56 770.786 1623.56H779.894C780.936 1623.56 781.672 1623.84 782.102 1624.39C782.592 1624.94 782.838 1625.59 782.838 1626.32C782.838 1627 782.562 1627.64 782.01 1628.26C781.519 1628.81 780.814 1629.08 779.894 1629.08H770.786C769.314 1629.08 768.578 1629.85 768.578 1631.38V1637C768.578 1638.59 769.344 1639.39 770.878 1639.39H781.734C782.776 1639.39 783.512 1639.69 783.942 1640.31C784.432 1640.86 784.678 1641.5 784.678 1642.24C784.678 1642.98 784.402 1643.62 783.85 1644.17C783.359 1644.72 782.654 1645 781.734 1645H767.198Z" fill="#3E3E3E"/>
<path id="UNLOCK" d="M975.072 1609.78C975.072 1608.79 975.409 1608.06 976.084 1607.57C976.759 1607.02 977.495 1606.74 978.292 1606.74C979.089 1606.74 979.795 1606.99 980.408 1607.48C981.083 1607.97 981.42 1608.73 981.42 1609.78V1629.92C981.42 1633.54 980.653 1636.46 979.12 1638.66C977.587 1640.87 975.624 1642.47 973.232 1643.45C970.84 1644.43 968.325 1644.92 965.688 1644.92C962.744 1644.92 960.076 1644.43 957.684 1643.45C955.353 1642.47 953.513 1640.87 952.164 1638.66C950.815 1636.39 950.14 1633.45 950.14 1629.83V1609.78C950.14 1608.73 950.477 1608 951.152 1607.57C951.827 1607.08 952.563 1606.83 953.36 1606.83C954.157 1606.83 954.863 1607.08 955.476 1607.57C956.151 1608 956.488 1608.73 956.488 1609.78V1629.83C956.488 1633.08 957.285 1635.47 958.88 1637.01C960.536 1638.48 962.805 1639.22 965.688 1639.22C968.264 1639.22 970.472 1638.48 972.312 1637.01C974.152 1635.47 975.072 1633.11 975.072 1629.92V1609.78ZM991.971 1644.92C991.174 1644.92 990.438 1644.67 989.763 1644.18C989.089 1643.69 988.751 1642.96 988.751 1641.98V1610.97C988.751 1609.56 989.181 1608.52 990.039 1607.84C990.959 1607.11 991.941 1606.74 992.983 1606.74C994.578 1606.74 995.743 1607.35 996.479 1608.58L1011.66 1632.41C1011.97 1632.9 1012.3 1633.14 1012.67 1633.14C1013.22 1633.14 1013.5 1632.71 1013.5 1631.86L1013.13 1609.68C1013.13 1608.7 1013.47 1607.97 1014.14 1607.48C1014.82 1606.99 1015.55 1606.74 1016.35 1606.74C1017.15 1606.74 1017.88 1606.99 1018.56 1607.48C1019.23 1607.97 1019.57 1608.7 1019.57 1609.68V1640.87C1019.57 1642.22 1019.17 1643.23 1018.38 1643.91C1017.58 1644.58 1016.66 1644.92 1015.62 1644.92C1014.88 1644.92 1014.14 1644.74 1013.41 1644.37C1012.73 1644.06 1012.15 1643.54 1011.66 1642.8L996.755 1619.62C996.449 1619.13 996.111 1618.88 995.743 1618.88C995.191 1618.88 994.915 1619.31 994.915 1620.17L995.191 1641.98C995.191 1642.96 994.854 1643.69 994.179 1644.18C993.566 1644.67 992.83 1644.92 991.971 1644.92ZM1031.05 1644C1029.52 1644 1028.29 1643.54 1027.37 1642.62C1026.45 1641.7 1025.99 1640.47 1025.99 1638.94V1609.78C1025.99 1608.73 1026.33 1607.97 1027.01 1607.48C1027.74 1606.99 1028.51 1606.74 1029.31 1606.74C1030.1 1606.74 1030.81 1606.99 1031.42 1607.48C1032.1 1607.97 1032.43 1608.73 1032.43 1609.78V1635.9C1032.43 1636.82 1032.62 1637.47 1032.99 1637.84C1033.35 1638.14 1033.97 1638.3 1034.83 1638.3H1044.3C1045.28 1638.3 1045.99 1638.6 1046.42 1639.22C1046.91 1639.83 1047.15 1640.47 1047.15 1641.15C1047.15 1641.88 1046.91 1642.56 1046.42 1643.17C1045.99 1643.72 1045.28 1644 1044.3 1644H1031.05ZM1070.49 1644.92C1066.94 1644.92 1063.68 1644.09 1060.74 1642.44C1057.86 1640.72 1055.56 1638.42 1053.84 1635.54C1052.12 1632.59 1051.26 1629.28 1051.26 1625.6C1051.26 1621.74 1052.12 1618.36 1053.84 1615.48C1055.56 1612.6 1057.86 1610.36 1060.74 1608.76C1063.68 1607.11 1066.94 1606.28 1070.49 1606.28C1074.05 1606.28 1077.24 1607.11 1080.06 1608.76C1082.94 1610.36 1085.21 1612.6 1086.87 1615.48C1088.59 1618.36 1089.44 1621.74 1089.44 1625.6C1089.44 1629.28 1088.59 1632.59 1086.87 1635.54C1085.21 1638.42 1082.94 1640.72 1080.06 1642.44C1077.24 1644.09 1074.05 1644.92 1070.49 1644.92ZM1070.49 1639.31C1072.95 1639.31 1075.09 1638.69 1076.93 1637.47C1078.83 1636.18 1080.31 1634.49 1081.35 1632.41C1082.39 1630.32 1082.91 1628.05 1082.91 1625.6C1082.91 1621.67 1081.75 1618.42 1079.42 1615.85C1077.09 1613.27 1074.11 1611.98 1070.49 1611.98C1066.81 1611.98 1063.81 1613.27 1061.48 1615.85C1059.15 1618.42 1057.98 1621.67 1057.98 1625.6C1057.98 1628.05 1058.5 1630.32 1059.54 1632.41C1060.59 1634.49 1062.06 1636.18 1063.96 1637.47C1065.86 1638.69 1068.04 1639.31 1070.49 1639.31ZM1121.45 1641.98C1120.4 1642.77 1118.78 1643.45 1116.57 1644C1114.36 1644.61 1112.18 1644.92 1110.04 1644.92C1106.48 1644.92 1103.29 1644.09 1100.47 1642.44C1097.65 1640.78 1095.41 1638.48 1093.75 1635.54C1092.1 1632.59 1091.27 1629.22 1091.27 1625.42C1091.27 1621.67 1092.07 1618.36 1093.66 1615.48C1095.26 1612.6 1097.5 1610.36 1100.38 1608.76C1103.32 1607.11 1106.73 1606.28 1110.59 1606.28C1112.12 1606.28 1113.63 1606.4 1115.1 1606.65C1116.63 1606.89 1118.16 1607.32 1119.7 1607.94C1120.31 1608.24 1120.74 1608.67 1120.99 1609.22C1121.29 1609.71 1121.45 1610.21 1121.45 1610.7C1121.45 1611.49 1121.17 1612.2 1120.62 1612.81C1120.13 1613.43 1119.45 1613.73 1118.59 1613.73C1118.23 1613.73 1117.8 1613.64 1117.31 1613.46C1116.32 1613.09 1115.16 1612.75 1113.81 1612.44C1112.52 1612.14 1111.23 1611.98 1109.95 1611.98C1107.49 1611.98 1105.35 1612.63 1103.51 1613.92C1101.67 1615.14 1100.22 1616.8 1099.18 1618.88C1098.2 1620.97 1097.71 1623.27 1097.71 1625.78C1097.71 1629.53 1098.84 1632.71 1101.11 1635.35C1103.38 1637.99 1106.39 1639.31 1110.13 1639.31C1111.79 1639.31 1113.41 1639.06 1115.01 1638.57C1116.6 1638.02 1117.8 1637.44 1118.59 1636.82C1119.27 1636.46 1119.85 1636.27 1120.34 1636.27C1121.14 1636.27 1121.78 1636.58 1122.27 1637.19C1122.76 1637.74 1123.01 1638.39 1123.01 1639.12C1123.01 1640.23 1122.49 1641.18 1121.45 1641.98ZM1131.26 1644.92C1130.46 1644.92 1129.72 1644.64 1129.05 1644.09C1128.38 1643.6 1128.04 1642.87 1128.04 1641.88V1609.78C1128.04 1608.73 1128.38 1607.97 1129.05 1607.48C1129.72 1606.99 1130.46 1606.74 1131.26 1606.74C1132.12 1606.74 1132.85 1606.99 1133.47 1607.48C1134.14 1607.97 1134.48 1608.73 1134.48 1609.78V1619.34C1134.48 1620.82 1134.75 1621.55 1135.31 1621.55C1135.8 1621.55 1136.35 1621.18 1136.96 1620.45L1149.11 1607.94C1149.9 1607.14 1150.7 1606.74 1151.5 1606.74C1152.42 1606.74 1153.22 1607.05 1153.89 1607.66C1154.56 1608.27 1154.9 1609.04 1154.9 1609.96C1154.9 1610.7 1154.63 1611.34 1154.07 1611.89L1141.38 1624.4L1154.81 1639.49C1155.36 1640.17 1155.64 1640.81 1155.64 1641.42C1155.64 1642.34 1155.27 1643.17 1154.53 1643.91C1153.86 1644.58 1153.09 1644.92 1152.23 1644.92C1151.31 1644.92 1150.52 1644.52 1149.84 1643.72L1136.96 1628.73L1135.67 1630.02C1134.88 1630.81 1134.48 1631.76 1134.48 1632.87V1641.88C1134.48 1642.87 1134.14 1643.6 1133.47 1644.09C1132.85 1644.64 1132.12 1644.92 1131.26 1644.92Z" fill="#3E3E3E"/>
<path id="CURSOR" d="M801.476 1554.98C800.433 1555.77 798.808 1556.45 796.6 1557C794.392 1557.61 792.215 1557.92 790.068 1557.92C786.511 1557.92 783.321 1557.09 780.5 1555.44C777.679 1553.78 775.44 1551.48 773.784 1548.54C772.128 1545.59 771.3 1542.22 771.3 1538.42C771.3 1534.67 772.097 1531.36 773.692 1528.48C775.287 1525.6 777.525 1523.36 780.408 1521.76C783.352 1520.11 786.756 1519.28 790.62 1519.28C792.153 1519.28 793.656 1519.4 795.128 1519.65C796.661 1519.89 798.195 1520.32 799.728 1520.94C800.341 1521.24 800.771 1521.67 801.016 1522.22C801.323 1522.71 801.476 1523.21 801.476 1523.7C801.476 1524.49 801.2 1525.2 800.648 1525.81C800.157 1526.43 799.483 1526.73 798.624 1526.73C798.256 1526.73 797.827 1526.64 797.336 1526.46C796.355 1526.09 795.189 1525.75 793.84 1525.44C792.552 1525.14 791.264 1524.98 789.976 1524.98C787.523 1524.98 785.376 1525.63 783.536 1526.92C781.696 1528.14 780.255 1529.8 779.212 1531.88C778.231 1533.97 777.74 1536.27 777.74 1538.78C777.74 1542.53 778.875 1545.71 781.144 1548.35C783.413 1550.99 786.419 1552.31 790.16 1552.31C791.816 1552.31 793.441 1552.06 795.036 1551.57C796.631 1551.02 797.827 1550.44 798.624 1549.82C799.299 1549.46 799.881 1549.27 800.372 1549.27C801.169 1549.27 801.813 1549.58 802.304 1550.19C802.795 1550.74 803.04 1551.39 803.04 1552.12C803.04 1553.23 802.519 1554.18 801.476 1554.98ZM837.6 1522.78C837.6 1521.79 837.937 1521.06 838.612 1520.57C839.286 1520.02 840.022 1519.74 840.82 1519.74C841.617 1519.74 842.322 1519.99 842.936 1520.48C843.61 1520.97 843.948 1521.73 843.948 1522.78V1542.92C843.948 1546.54 843.181 1549.46 841.648 1551.66C840.114 1553.87 838.152 1555.47 835.76 1556.45C833.368 1557.43 830.853 1557.92 828.216 1557.92C825.272 1557.92 822.604 1557.43 820.212 1556.45C817.881 1555.47 816.041 1553.87 814.692 1551.66C813.342 1549.39 812.668 1546.45 812.668 1542.83V1522.78C812.668 1521.73 813.005 1521 813.68 1520.57C814.354 1520.08 815.09 1519.83 815.888 1519.83C816.685 1519.83 817.39 1520.08 818.004 1520.57C818.678 1521 819.016 1521.73 819.016 1522.78V1542.83C819.016 1546.08 819.813 1548.47 821.408 1550.01C823.064 1551.48 825.333 1552.22 828.216 1552.22C830.792 1552.22 833 1551.48 834.84 1550.01C836.68 1548.47 837.6 1546.11 837.6 1542.92V1522.78ZM857.167 1557.92C856.37 1557.92 855.634 1557.61 854.959 1557C854.346 1556.45 854.039 1555.77 854.039 1554.98V1525.26C854.039 1523.6 854.591 1522.35 855.695 1521.49C856.86 1520.63 858.087 1520.2 859.375 1520.2H868.391C870.476 1520.2 872.408 1520.66 874.187 1521.58C876.027 1522.44 877.499 1523.7 878.603 1525.35C879.707 1526.95 880.259 1528.88 880.259 1531.15C880.259 1533.29 879.615 1535.35 878.327 1537.31C877.1 1539.21 875.506 1540.5 873.543 1541.18C874.402 1541.54 875.199 1542.16 875.935 1543.02C876.732 1543.81 877.438 1544.89 878.051 1546.24L881.363 1553.69C881.547 1554.06 881.639 1554.45 881.639 1554.88C881.639 1555.99 881.271 1556.79 880.535 1557.28C879.86 1557.77 879.155 1558.01 878.419 1558.01C877.192 1558.01 876.334 1557.43 875.843 1556.26L872.071 1547.43C871.274 1545.65 870.262 1544.43 869.035 1543.75C867.808 1543.08 866.459 1542.74 864.987 1542.74H862.687C861.092 1542.74 860.295 1543.66 860.295 1545.5V1554.98C860.295 1555.77 859.988 1556.45 859.375 1557C858.762 1557.61 858.026 1557.92 857.167 1557.92ZM862.319 1537.22H867.471C869.004 1537.22 870.476 1536.73 871.887 1535.75C873.359 1534.71 874.095 1533.23 874.095 1531.33C874.095 1529.49 873.42 1528.11 872.071 1527.19C870.783 1526.27 869.372 1525.81 867.839 1525.81H862.595C861.062 1525.81 860.295 1526.58 860.295 1528.11V1535.1C860.295 1536.51 860.97 1537.22 862.319 1537.22ZM902.36 1557.92C899.662 1557.92 897.055 1557.46 894.54 1556.54C892.087 1555.62 890.186 1554.3 888.836 1552.58C888.346 1551.91 888.1 1551.23 888.1 1550.56C888.1 1549.76 888.407 1549.09 889.02 1548.54C889.695 1547.92 890.431 1547.62 891.228 1547.62C891.658 1547.62 892.087 1547.71 892.516 1547.89C892.946 1548.01 893.283 1548.26 893.528 1548.63C894.51 1549.79 895.828 1550.71 897.484 1551.39C899.202 1552.06 900.98 1552.4 902.82 1552.4C904.967 1552.4 906.715 1551.88 908.064 1550.84C909.475 1549.79 910.18 1548.41 910.18 1546.7C910.18 1544.73 909.352 1543.35 907.696 1542.56C906.102 1541.7 904.231 1541.08 902.084 1540.72C900.122 1540.35 898.128 1539.83 896.104 1539.15C894.08 1538.42 892.394 1537.37 891.044 1536.02C889.695 1534.61 889.02 1532.71 889.02 1530.32C889.02 1527.07 890.247 1524.49 892.7 1522.59C895.215 1520.69 898.558 1519.74 902.728 1519.74C904.936 1519.74 906.96 1520.08 908.8 1520.75C910.64 1521.37 912.174 1522.22 913.4 1523.33C914.136 1523.94 914.504 1524.71 914.504 1525.63C914.504 1526.36 914.228 1527.01 913.676 1527.56C913.124 1528.11 912.48 1528.39 911.744 1528.39C911.008 1528.39 910.303 1528.14 909.628 1527.65C907.666 1526.06 905.243 1525.26 902.36 1525.26C897.454 1525.26 895 1526.92 895 1530.23C895 1531.82 895.736 1532.93 897.208 1533.54C898.742 1534.09 900.796 1534.67 903.372 1535.29C904.599 1535.53 905.918 1535.9 907.328 1536.39C908.8 1536.82 910.211 1537.47 911.56 1538.32C912.91 1539.12 914.014 1540.23 914.872 1541.64C915.731 1542.99 916.16 1544.7 916.16 1546.79C916.16 1550.1 914.872 1552.8 912.296 1554.88C909.782 1556.91 906.47 1557.92 902.36 1557.92ZM939.033 1557.92C935.475 1557.92 932.225 1557.09 929.281 1555.44C926.398 1553.72 924.098 1551.42 922.381 1548.54C920.663 1545.59 919.805 1542.28 919.805 1538.6C919.805 1534.74 920.663 1531.36 922.381 1528.48C924.098 1525.6 926.398 1523.36 929.281 1521.76C932.225 1520.11 935.475 1519.28 939.033 1519.28C942.59 1519.28 945.779 1520.11 948.601 1521.76C951.483 1523.36 953.753 1525.6 955.409 1528.48C957.126 1531.36 957.985 1534.74 957.985 1538.6C957.985 1542.28 957.126 1545.59 955.409 1548.54C953.753 1551.42 951.483 1553.72 948.601 1555.44C945.779 1557.09 942.59 1557.92 939.033 1557.92ZM939.033 1552.31C941.486 1552.31 943.633 1551.69 945.473 1550.47C947.374 1549.18 948.846 1547.49 949.889 1545.41C950.931 1543.32 951.453 1541.05 951.453 1538.6C951.453 1534.67 950.287 1531.42 947.957 1528.85C945.626 1526.27 942.651 1524.98 939.033 1524.98C935.353 1524.98 932.347 1526.27 930.017 1528.85C927.686 1531.42 926.521 1534.67 926.521 1538.6C926.521 1541.05 927.042 1543.32 928.085 1545.41C929.127 1547.49 930.599 1549.18 932.501 1550.47C934.402 1551.69 936.579 1552.31 939.033 1552.31ZM969.378 1557.92C968.581 1557.92 967.845 1557.61 967.17 1557C966.557 1556.45 966.25 1555.77 966.25 1554.98V1525.26C966.25 1523.6 966.802 1522.35 967.906 1521.49C969.071 1520.63 970.298 1520.2 971.586 1520.2H980.602C982.687 1520.2 984.619 1520.66 986.398 1521.58C988.238 1522.44 989.71 1523.7 990.814 1525.35C991.918 1526.95 992.47 1528.88 992.47 1531.15C992.47 1533.29 991.826 1535.35 990.538 1537.31C989.311 1539.21 987.717 1540.5 985.754 1541.18C986.613 1541.54 987.41 1542.16 988.146 1543.02C988.943 1543.81 989.649 1544.89 990.262 1546.24L993.574 1553.69C993.758 1554.06 993.85 1554.45 993.85 1554.88C993.85 1555.99 993.482 1556.79 992.746 1557.28C992.071 1557.77 991.366 1558.01 990.63 1558.01C989.403 1558.01 988.545 1557.43 988.054 1556.26L984.282 1547.43C983.485 1545.65 982.473 1544.43 981.246 1543.75C980.019 1543.08 978.67 1542.74 977.198 1542.74H974.898C973.303 1542.74 972.506 1543.66 972.506 1545.5V1554.98C972.506 1555.77 972.199 1556.45 971.586 1557C970.973 1557.61 970.237 1557.92 969.378 1557.92ZM974.53 1537.22H979.682C981.215 1537.22 982.687 1536.73 984.098 1535.75C985.57 1534.71 986.306 1533.23 986.306 1531.33C986.306 1529.49 985.631 1528.11 984.282 1527.19C982.994 1526.27 981.583 1525.81 980.05 1525.81H974.806C973.273 1525.81 972.506 1526.58 972.506 1528.11V1535.1C972.506 1536.51 973.181 1537.22 974.53 1537.22Z" fill="#3E3E3E"/>
<path id="SELECT" d="M1309.1 1644.92C1306.4 1644.92 1303.79 1644.46 1301.28 1643.54C1298.83 1642.62 1296.93 1641.3 1295.58 1639.58C1295.09 1638.91 1294.84 1638.23 1294.84 1637.56C1294.84 1636.76 1295.15 1636.09 1295.76 1635.54C1296.43 1634.92 1297.17 1634.62 1297.97 1634.62C1298.4 1634.62 1298.83 1634.71 1299.26 1634.89C1299.69 1635.01 1300.02 1635.26 1300.27 1635.63C1301.25 1636.79 1302.57 1637.71 1304.22 1638.39C1305.94 1639.06 1307.72 1639.4 1309.56 1639.4C1311.71 1639.4 1313.45 1638.88 1314.8 1637.84C1316.21 1636.79 1316.92 1635.41 1316.92 1633.7C1316.92 1631.73 1316.09 1630.35 1314.44 1629.56C1312.84 1628.7 1310.97 1628.08 1308.82 1627.72C1306.86 1627.35 1304.87 1626.83 1302.84 1626.15C1300.82 1625.42 1299.13 1624.37 1297.78 1623.02C1296.43 1621.61 1295.76 1619.71 1295.76 1617.32C1295.76 1614.07 1296.99 1611.49 1299.44 1609.59C1301.95 1607.69 1305.3 1606.74 1309.47 1606.74C1311.68 1606.74 1313.7 1607.08 1315.54 1607.75C1317.38 1608.37 1318.91 1609.22 1320.14 1610.33C1320.88 1610.94 1321.24 1611.71 1321.24 1612.63C1321.24 1613.36 1320.97 1614.01 1320.42 1614.56C1319.86 1615.11 1319.22 1615.39 1318.48 1615.39C1317.75 1615.39 1317.04 1615.14 1316.37 1614.65C1314.41 1613.06 1311.98 1612.26 1309.1 1612.26C1304.19 1612.26 1301.74 1613.92 1301.74 1617.23C1301.74 1618.82 1302.48 1619.93 1303.95 1620.54C1305.48 1621.09 1307.54 1621.67 1310.11 1622.29C1311.34 1622.53 1312.66 1622.9 1314.07 1623.39C1315.54 1623.82 1316.95 1624.47 1318.3 1625.32C1319.65 1626.12 1320.75 1627.23 1321.61 1628.64C1322.47 1629.99 1322.9 1631.7 1322.9 1633.79C1322.9 1637.1 1321.61 1639.8 1319.04 1641.88C1316.52 1643.91 1313.21 1644.92 1309.1 1644.92ZM1337.12 1644C1335.59 1644 1334.36 1643.54 1333.44 1642.62C1332.52 1641.7 1332.06 1640.47 1332.06 1638.94V1611.98C1332.06 1610.57 1332.52 1609.44 1333.44 1608.58C1334.43 1607.66 1335.56 1607.2 1336.85 1607.2H1350.74C1351.78 1607.2 1352.52 1607.48 1352.95 1608.03C1353.44 1608.52 1353.68 1609.16 1353.68 1609.96C1353.68 1610.7 1353.41 1611.34 1352.86 1611.89C1352.37 1612.44 1351.66 1612.72 1350.74 1612.72H1340.9C1339.3 1612.72 1338.5 1613.52 1338.5 1615.11V1620.17C1338.5 1621.77 1339.24 1622.56 1340.71 1622.56H1349.82C1350.86 1622.56 1351.6 1622.84 1352.03 1623.39C1352.52 1623.94 1352.76 1624.59 1352.76 1625.32C1352.76 1626 1352.49 1626.64 1351.94 1627.26C1351.45 1627.81 1350.74 1628.08 1349.82 1628.08H1340.71C1339.24 1628.08 1338.5 1628.85 1338.5 1630.38V1636C1338.5 1637.59 1339.27 1638.39 1340.8 1638.39H1351.66C1352.7 1638.39 1353.44 1638.69 1353.87 1639.31C1354.36 1639.86 1354.6 1640.5 1354.6 1641.24C1354.6 1641.98 1354.33 1642.62 1353.78 1643.17C1353.29 1643.72 1352.58 1644 1351.66 1644H1337.12ZM1369.35 1644C1367.82 1644 1366.59 1643.54 1365.67 1642.62C1364.75 1641.7 1364.29 1640.47 1364.29 1638.94V1609.78C1364.29 1608.73 1364.63 1607.97 1365.3 1607.48C1366.04 1606.99 1366.81 1606.74 1367.6 1606.74C1368.4 1606.74 1369.11 1606.99 1369.72 1607.48C1370.4 1607.97 1370.73 1608.73 1370.73 1609.78V1635.9C1370.73 1636.82 1370.92 1637.47 1371.28 1637.84C1371.65 1638.14 1372.27 1638.3 1373.12 1638.3H1382.6C1383.58 1638.3 1384.29 1638.6 1384.72 1639.22C1385.21 1639.83 1385.45 1640.47 1385.45 1641.15C1385.45 1641.88 1385.21 1642.56 1384.72 1643.17C1384.29 1643.72 1383.58 1644 1382.6 1644H1369.35ZM1401.52 1644C1399.99 1644 1398.76 1643.54 1397.84 1642.62C1396.92 1641.7 1396.46 1640.47 1396.46 1638.94V1611.98C1396.46 1610.57 1396.92 1609.44 1397.84 1608.58C1398.83 1607.66 1399.96 1607.2 1401.25 1607.2H1415.14C1416.18 1607.2 1416.92 1607.48 1417.35 1608.03C1417.84 1608.52 1418.08 1609.16 1418.08 1609.96C1418.08 1610.7 1417.81 1611.34 1417.26 1611.89C1416.77 1612.44 1416.06 1612.72 1415.14 1612.72H1405.3C1403.7 1612.72 1402.9 1613.52 1402.9 1615.11V1620.17C1402.9 1621.77 1403.64 1622.56 1405.11 1622.56H1414.22C1415.26 1622.56 1416 1622.84 1416.43 1623.39C1416.92 1623.94 1417.16 1624.59 1417.16 1625.32C1417.16 1626 1416.89 1626.64 1416.34 1627.26C1415.85 1627.81 1415.14 1628.08 1414.22 1628.08H1405.11C1403.64 1628.08 1402.9 1628.85 1402.9 1630.38V1636C1402.9 1637.59 1403.67 1638.39 1405.2 1638.39H1416.06C1417.1 1638.39 1417.84 1638.69 1418.27 1639.31C1418.76 1639.86 1419 1640.5 1419 1641.24C1419 1641.98 1418.73 1642.62 1418.18 1643.17C1417.69 1643.72 1416.98 1644 1416.06 1644H1401.52ZM1457.03 1641.98C1455.99 1642.77 1454.36 1643.45 1452.15 1644C1449.94 1644.61 1447.77 1644.92 1445.62 1644.92C1442.06 1644.92 1438.87 1644.09 1436.05 1642.44C1433.23 1640.78 1430.99 1638.48 1429.34 1635.54C1427.68 1632.59 1426.85 1629.22 1426.85 1625.42C1426.85 1621.67 1427.65 1618.36 1429.24 1615.48C1430.84 1612.6 1433.08 1610.36 1435.96 1608.76C1438.9 1607.11 1442.31 1606.28 1446.17 1606.28C1447.71 1606.28 1449.21 1606.4 1450.68 1606.65C1452.21 1606.89 1453.75 1607.32 1455.28 1607.94C1455.89 1608.24 1456.32 1608.67 1456.57 1609.22C1456.88 1609.71 1457.03 1610.21 1457.03 1610.7C1457.03 1611.49 1456.75 1612.2 1456.2 1612.81C1455.71 1613.43 1455.04 1613.73 1454.18 1613.73C1453.81 1613.73 1453.38 1613.64 1452.89 1613.46C1451.91 1613.09 1450.74 1612.75 1449.39 1612.44C1448.1 1612.14 1446.82 1611.98 1445.53 1611.98C1443.08 1611.98 1440.93 1612.63 1439.09 1613.92C1437.25 1615.14 1435.81 1616.8 1434.76 1618.88C1433.78 1620.97 1433.29 1623.27 1433.29 1625.78C1433.29 1629.53 1434.43 1632.71 1436.7 1635.35C1438.97 1637.99 1441.97 1639.31 1445.71 1639.31C1447.37 1639.31 1448.99 1639.06 1450.59 1638.57C1452.18 1638.02 1453.38 1637.44 1454.18 1636.82C1454.85 1636.46 1455.43 1636.27 1455.92 1636.27C1456.72 1636.27 1457.37 1636.58 1457.86 1637.19C1458.35 1637.74 1458.59 1638.39 1458.59 1639.12C1458.59 1640.23 1458.07 1641.18 1457.03 1641.98ZM1479.26 1644.92C1478.28 1644.92 1477.48 1644.64 1476.87 1644.09C1476.32 1643.54 1476.04 1642.83 1476.04 1641.98V1615.2C1476.04 1613.67 1475.24 1612.9 1473.65 1612.9H1467.85C1465.95 1612.9 1465 1611.95 1465 1610.05C1465 1608.15 1465.95 1607.2 1467.85 1607.2H1490.58C1491.44 1607.2 1492.14 1607.48 1492.69 1608.03C1493.24 1608.52 1493.52 1609.19 1493.52 1610.05C1493.52 1610.91 1493.24 1611.62 1492.69 1612.17C1492.14 1612.66 1491.44 1612.9 1490.58 1612.9H1484.87C1483.28 1612.9 1482.48 1613.67 1482.48 1615.2V1641.98C1482.48 1642.83 1482.17 1643.54 1481.56 1644.09C1481.01 1644.64 1480.24 1644.92 1479.26 1644.92Z" fill="#3E3E3E"/>
<path id="JAPAN W030-001A UH" d="M1217.87 447.44C1217.31 447.44 1216.76 447.367 1216.2 447.22C1215.67 447.073 1215.16 446.853 1214.66 446.56C1214.45 446.413 1214.29 446.223 1214.18 445.988C1214.06 445.724 1214 445.489 1214 445.284C1214 444.873 1214.15 444.521 1214.44 444.228C1214.73 443.905 1215.07 443.744 1215.45 443.744C1215.72 443.744 1215.95 443.803 1216.16 443.92C1216.86 444.301 1217.51 444.492 1218.09 444.492C1219.32 444.492 1219.94 443.583 1219.94 441.764V430.632C1219.94 430.192 1220.07 429.84 1220.34 429.576C1220.63 429.312 1221.01 429.18 1221.48 429.18C1221.95 429.18 1222.32 429.312 1222.58 429.576C1222.87 429.84 1223.02 430.192 1223.02 430.632V441.852C1223.02 443.729 1222.51 445.137 1221.48 446.076C1220.48 446.985 1219.28 447.44 1217.87 447.44ZM1231.07 447.44C1230.69 447.44 1230.35 447.308 1230.06 447.044C1229.77 446.78 1229.62 446.428 1229.62 445.988C1229.62 445.841 1229.65 445.651 1229.71 445.416L1235.21 430.5C1235.41 430.001 1235.72 429.62 1236.13 429.356C1236.54 429.092 1236.98 428.96 1237.45 428.96C1237.92 428.96 1238.36 429.092 1238.77 429.356C1239.21 429.62 1239.53 430.001 1239.74 430.5L1245.59 445.416C1245.65 445.651 1245.68 445.841 1245.68 445.988C1245.68 446.428 1245.53 446.78 1245.24 447.044C1244.95 447.308 1244.61 447.44 1244.23 447.44C1243.96 447.44 1243.69 447.367 1243.39 447.22C1243.13 447.103 1242.92 446.897 1242.78 446.604L1241.32 442.732C1241.29 442.556 1241.18 442.468 1240.97 442.468H1234.24C1234.03 442.468 1233.9 442.556 1233.84 442.732L1232.52 446.604C1232.38 446.897 1232.16 447.103 1231.86 447.22C1231.6 447.367 1231.34 447.44 1231.07 447.44ZM1235.56 439.828H1239.52C1239.7 439.828 1239.83 439.769 1239.92 439.652C1240.03 439.505 1240.06 439.329 1240 439.124L1237.89 433.096C1237.8 432.803 1237.67 432.656 1237.5 432.656C1237.29 432.656 1237.14 432.803 1237.06 433.096L1235.08 439.168C1235.02 439.344 1235.03 439.505 1235.12 439.652C1235.24 439.769 1235.38 439.828 1235.56 439.828ZM1253.17 447.44C1252.79 447.44 1252.44 447.293 1252.12 447C1251.79 446.736 1251.63 446.413 1251.63 446.032V431.82C1251.63 431.028 1251.88 430.427 1252.38 430.016C1252.88 429.605 1253.44 429.4 1254.05 429.4H1258.72C1259.71 429.4 1260.64 429.605 1261.49 430.016C1262.37 430.397 1263.07 430.969 1263.6 431.732C1264.13 432.495 1264.39 433.433 1264.39 434.548C1264.39 436.279 1263.83 437.657 1262.72 438.684C1261.63 439.711 1260.31 440.224 1258.76 440.224H1255.81C1255.08 440.224 1254.71 440.664 1254.71 441.544V446.032C1254.71 446.413 1254.55 446.736 1254.23 447C1253.93 447.293 1253.58 447.44 1253.17 447.44ZM1255.59 437.584H1258.28C1259.01 437.584 1259.71 437.364 1260.39 436.924C1261.09 436.484 1261.44 435.721 1261.44 434.636C1261.44 433.785 1261.12 433.155 1260.48 432.744C1259.86 432.304 1259.19 432.084 1258.45 432.084H1255.72C1254.99 432.084 1254.62 432.436 1254.62 433.14V436.396C1254.62 437.188 1254.95 437.584 1255.59 437.584ZM1272.24 447.44C1271.86 447.44 1271.52 447.308 1271.23 447.044C1270.93 446.78 1270.79 446.428 1270.79 445.988C1270.79 445.841 1270.82 445.651 1270.88 445.416L1276.38 430.5C1276.58 430.001 1276.89 429.62 1277.3 429.356C1277.71 429.092 1278.15 428.96 1278.62 428.96C1279.09 428.96 1279.53 429.092 1279.94 429.356C1280.38 429.62 1280.7 430.001 1280.91 430.5L1286.76 445.416C1286.82 445.651 1286.85 445.841 1286.85 445.988C1286.85 446.428 1286.7 446.78 1286.41 447.044C1286.11 447.308 1285.78 447.44 1285.4 447.44C1285.13 447.44 1284.85 447.367 1284.56 447.22C1284.3 447.103 1284.09 446.897 1283.94 446.604L1282.49 442.732C1282.46 442.556 1282.34 442.468 1282.14 442.468H1275.41C1275.2 442.468 1275.07 442.556 1275.01 442.732L1273.69 446.604C1273.54 446.897 1273.32 447.103 1273.03 447.22C1272.77 447.367 1272.5 447.44 1272.24 447.44ZM1276.73 439.828H1280.69C1280.86 439.828 1281 439.769 1281.08 439.652C1281.2 439.505 1281.23 439.329 1281.17 439.124L1279.06 433.096C1278.97 432.803 1278.84 432.656 1278.66 432.656C1278.46 432.656 1278.31 432.803 1278.22 433.096L1276.24 439.168C1276.18 439.344 1276.2 439.505 1276.29 439.652C1276.4 439.769 1276.55 439.828 1276.73 439.828ZM1295 447.44C1294.62 447.44 1294.27 447.323 1293.94 447.088C1293.62 446.853 1293.46 446.501 1293.46 446.032V431.204C1293.46 430.529 1293.66 430.031 1294.08 429.708C1294.52 429.356 1294.98 429.18 1295.48 429.18C1296.25 429.18 1296.8 429.473 1297.16 430.06L1304.42 441.456C1304.56 441.691 1304.72 441.808 1304.9 441.808C1305.16 441.808 1305.3 441.603 1305.3 441.192L1305.12 430.588C1305.12 430.119 1305.28 429.767 1305.6 429.532C1305.93 429.297 1306.28 429.18 1306.66 429.18C1307.04 429.18 1307.39 429.297 1307.72 429.532C1308.04 429.767 1308.2 430.119 1308.2 430.588V445.504C1308.2 446.149 1308.01 446.633 1307.63 446.956C1307.25 447.279 1306.81 447.44 1306.31 447.44C1305.96 447.44 1305.6 447.352 1305.25 447.176C1304.93 447.029 1304.65 446.78 1304.42 446.428L1297.29 435.34C1297.14 435.105 1296.98 434.988 1296.8 434.988C1296.54 434.988 1296.41 435.193 1296.41 435.604L1296.54 446.032C1296.54 446.501 1296.38 446.853 1296.06 447.088C1295.76 447.323 1295.41 447.44 1295 447.44ZM1332.62 447.44C1332.09 447.44 1331.62 447.279 1331.21 446.956C1330.83 446.604 1330.58 446.164 1330.46 445.636L1327.56 430.72C1327.53 430.221 1327.68 429.84 1328 429.576C1328.32 429.312 1328.69 429.18 1329.1 429.18C1329.42 429.18 1329.73 429.283 1330.02 429.488C1330.35 429.693 1330.54 430.016 1330.6 430.456L1332.66 442.292C1332.72 442.615 1332.84 442.776 1333.02 442.776C1333.16 442.776 1333.28 442.629 1333.37 442.336L1336.01 432.392C1336.15 431.923 1336.42 431.585 1336.8 431.38C1337.18 431.145 1337.55 431.028 1337.9 431.028C1338.25 431.028 1338.62 431.145 1339 431.38C1339.41 431.585 1339.67 431.923 1339.79 432.392L1342.43 442.336C1342.52 442.629 1342.64 442.776 1342.78 442.776C1342.96 442.776 1343.08 442.615 1343.14 442.292L1345.2 430.456C1345.29 430.016 1345.48 429.693 1345.78 429.488C1346.07 429.283 1346.38 429.18 1346.7 429.18C1347.11 429.18 1347.48 429.312 1347.8 429.576C1348.15 429.84 1348.3 430.221 1348.24 430.72L1345.29 445.636C1345.17 446.164 1344.91 446.604 1344.5 446.956C1344.12 447.279 1343.66 447.44 1343.14 447.44C1342.08 447.44 1341.33 446.868 1340.89 445.724L1338.3 436.396C1338.21 436.073 1338.08 435.912 1337.9 435.912C1337.72 435.912 1337.59 436.073 1337.5 436.396L1334.86 445.724C1334.42 446.868 1333.68 447.44 1332.62 447.44ZM1353.28 438.332C1353.28 435.487 1353.81 433.257 1354.86 431.644C1355.92 430.001 1357.52 429.18 1359.66 429.18C1361.8 429.18 1363.4 430.001 1364.45 431.644C1365.51 433.257 1366.04 435.487 1366.04 438.332C1366.04 441.089 1365.5 443.304 1364.41 444.976C1363.33 446.648 1361.74 447.469 1359.66 447.44C1357.49 447.411 1355.87 446.604 1354.82 445.02C1353.79 443.407 1353.28 441.177 1353.28 438.332ZM1356.27 438.332C1356.27 440.415 1356.52 441.984 1357.02 443.04C1357.55 444.096 1358.43 444.639 1359.66 444.668C1360.83 444.697 1361.68 444.155 1362.21 443.04C1362.77 441.896 1363.05 440.327 1363.05 438.332C1363.05 436.22 1362.78 434.636 1362.25 433.58C1361.76 432.524 1360.89 431.996 1359.66 431.996C1358.43 431.996 1357.55 432.539 1357.02 433.624C1356.52 434.68 1356.27 436.249 1356.27 438.332ZM1377.51 447.44C1376.07 447.411 1374.79 447.073 1373.68 446.428C1372.59 445.783 1371.84 444.976 1371.43 444.008C1371.35 443.773 1371.3 443.568 1371.3 443.392C1371.3 442.981 1371.48 442.644 1371.83 442.38C1372.18 442.116 1372.55 441.984 1372.93 441.984C1373.52 441.984 1373.93 442.233 1374.16 442.732C1374.78 444.169 1375.94 444.888 1377.64 444.888C1378.61 444.888 1379.37 444.58 1379.93 443.964C1380.51 443.348 1380.81 442.644 1380.81 441.852C1380.81 440.679 1380.41 439.887 1379.62 439.476C1378.83 439.065 1377.87 438.86 1376.76 438.86C1376.29 438.889 1375.95 438.772 1375.75 438.508C1375.54 438.244 1375.44 437.951 1375.44 437.628C1375.44 437.335 1375.53 437.071 1375.7 436.836C1375.91 436.572 1376.22 436.44 1376.63 436.44C1377.83 436.44 1378.68 436.235 1379.18 435.824C1379.71 435.384 1379.97 434.739 1379.97 433.888C1379.97 433.243 1379.76 432.715 1379.35 432.304C1378.97 431.864 1378.42 431.644 1377.68 431.644C1376.83 431.644 1376.2 431.805 1375.79 432.128C1375.38 432.451 1375.06 432.817 1374.82 433.228C1374.62 433.521 1374.4 433.741 1374.16 433.888C1373.93 434.005 1373.69 434.064 1373.46 434.064C1373.11 434.064 1372.77 433.932 1372.45 433.668C1372.15 433.404 1372.01 433.081 1372.01 432.7C1372.01 432.524 1372.05 432.348 1372.14 432.172C1372.55 431.321 1373.21 430.617 1374.12 430.06C1375.06 429.473 1376.2 429.18 1377.55 429.18C1379.4 429.18 1380.75 429.649 1381.6 430.588C1382.48 431.497 1382.92 432.568 1382.92 433.8C1382.92 434.533 1382.73 435.252 1382.35 435.956C1381.96 436.631 1381.47 437.144 1380.85 437.496C1381.64 437.76 1382.33 438.288 1382.92 439.08C1383.53 439.872 1383.84 440.767 1383.84 441.764C1383.84 443.377 1383.28 444.741 1382.17 445.856C1381.08 446.941 1379.53 447.469 1377.51 447.44ZM1387.81 438.332C1387.81 435.487 1388.33 433.257 1389.39 431.644C1390.45 430.001 1392.04 429.18 1394.19 429.18C1396.33 429.18 1397.93 430.001 1398.98 431.644C1400.04 433.257 1400.57 435.487 1400.57 438.332C1400.57 441.089 1400.02 443.304 1398.94 444.976C1397.85 446.648 1396.27 447.469 1394.19 447.44C1392.01 447.411 1390.4 446.604 1389.35 445.02C1388.32 443.407 1387.81 441.177 1387.81 438.332ZM1390.8 438.332C1390.8 440.415 1391.05 441.984 1391.55 443.04C1392.07 444.096 1392.95 444.639 1394.19 444.668C1395.36 444.697 1396.21 444.155 1396.74 443.04C1397.29 441.896 1397.57 440.327 1397.57 438.332C1397.57 436.22 1397.31 434.636 1396.78 433.58C1396.28 432.524 1395.42 431.996 1394.19 431.996C1392.95 431.996 1392.07 432.539 1391.55 433.624C1391.05 434.68 1390.8 436.249 1390.8 438.332ZM1411.64 438.2C1411.99 438.2 1412.28 438.303 1412.52 438.508C1412.75 438.713 1412.87 438.977 1412.87 439.3C1412.87 439.593 1412.75 439.857 1412.52 440.092C1412.28 440.297 1411.99 440.4 1411.64 440.4H1404.82C1404.02 440.4 1403.63 440.033 1403.63 439.3C1403.63 438.567 1404.02 438.2 1404.82 438.2H1411.64ZM1415.94 438.332C1415.94 435.487 1416.47 433.257 1417.52 431.644C1418.58 430.001 1420.18 429.18 1422.32 429.18C1424.46 429.18 1426.06 430.001 1427.12 431.644C1428.17 433.257 1428.7 435.487 1428.7 438.332C1428.7 441.089 1428.16 443.304 1427.07 444.976C1425.99 446.648 1424.4 447.469 1422.32 447.44C1420.15 447.411 1418.54 446.604 1417.48 445.02C1416.45 443.407 1415.94 441.177 1415.94 438.332ZM1418.93 438.332C1418.93 440.415 1419.18 441.984 1419.68 443.04C1420.21 444.096 1421.09 444.639 1422.32 444.668C1423.49 444.697 1424.34 444.155 1424.87 443.04C1425.43 441.896 1425.71 440.327 1425.71 438.332C1425.71 436.22 1425.44 434.636 1424.92 433.58C1424.42 432.524 1423.55 431.996 1422.32 431.996C1421.09 431.996 1420.21 432.539 1419.68 433.624C1419.18 434.68 1418.93 436.249 1418.93 438.332ZM1432.86 438.332C1432.86 435.487 1433.39 433.257 1434.45 431.644C1435.5 430.001 1437.1 429.18 1439.24 429.18C1441.38 429.18 1442.98 430.001 1444.04 431.644C1445.09 433.257 1445.62 435.487 1445.62 438.332C1445.62 441.089 1445.08 443.304 1443.99 444.976C1442.91 446.648 1441.32 447.469 1439.24 447.44C1437.07 447.411 1435.46 446.604 1434.4 445.02C1433.38 443.407 1432.86 441.177 1432.86 438.332ZM1435.85 438.332C1435.85 440.415 1436.1 441.984 1436.6 443.04C1437.13 444.096 1438.01 444.639 1439.24 444.668C1440.42 444.697 1441.27 444.155 1441.79 443.04C1442.35 441.896 1442.63 440.327 1442.63 438.332C1442.63 436.22 1442.37 434.636 1441.84 433.58C1441.34 432.524 1440.47 431.996 1439.24 431.996C1438.01 431.996 1437.13 432.539 1436.6 433.624C1436.1 434.68 1435.85 436.249 1435.85 438.332ZM1455.46 447.44C1455.05 447.44 1454.68 447.293 1454.36 447C1454.07 446.707 1453.92 446.369 1453.92 445.988V433.184C1453.92 432.656 1453.72 432.495 1453.3 432.7L1452.2 433.184C1452.03 433.243 1451.85 433.272 1451.68 433.272C1451.24 433.272 1450.88 433.14 1450.62 432.876C1450.36 432.583 1450.22 432.216 1450.22 431.776C1450.22 431.16 1450.53 430.735 1451.15 430.5L1454.32 429.356C1454.64 429.239 1454.93 429.18 1455.2 429.18C1455.75 429.18 1456.19 429.356 1456.52 429.708C1456.87 430.031 1457.04 430.456 1457.04 430.984L1457 446.076C1457 446.487 1456.85 446.809 1456.56 447.044C1456.27 447.308 1455.9 447.44 1455.46 447.44ZM1464.67 447.44C1464.29 447.44 1463.95 447.308 1463.66 447.044C1463.36 446.78 1463.22 446.428 1463.22 445.988C1463.22 445.841 1463.25 445.651 1463.31 445.416L1468.81 430.5C1469.01 430.001 1469.32 429.62 1469.73 429.356C1470.14 429.092 1470.58 428.96 1471.05 428.96C1471.52 428.96 1471.96 429.092 1472.37 429.356C1472.81 429.62 1473.13 430.001 1473.34 430.5L1479.19 445.416C1479.25 445.651 1479.28 445.841 1479.28 445.988C1479.28 446.428 1479.13 446.78 1478.84 447.044C1478.54 447.308 1478.21 447.44 1477.83 447.44C1477.56 447.44 1477.28 447.367 1476.99 447.22C1476.73 447.103 1476.52 446.897 1476.37 446.604L1474.92 442.732C1474.89 442.556 1474.77 442.468 1474.57 442.468H1467.84C1467.63 442.468 1467.5 442.556 1467.44 442.732L1466.12 446.604C1465.97 446.897 1465.75 447.103 1465.46 447.22C1465.2 447.367 1464.93 447.44 1464.67 447.44ZM1469.16 439.828H1473.12C1473.29 439.828 1473.43 439.769 1473.51 439.652C1473.63 439.505 1473.66 439.329 1473.6 439.124L1471.49 433.096C1471.4 432.803 1471.27 432.656 1471.09 432.656C1470.89 432.656 1470.74 432.803 1470.65 433.096L1468.67 439.168C1468.61 439.344 1468.63 439.505 1468.72 439.652C1468.83 439.769 1468.98 439.828 1469.16 439.828ZM1505.96 430.632C1505.96 430.163 1506.12 429.811 1506.45 429.576C1506.77 429.312 1507.12 429.18 1507.5 429.18C1507.88 429.18 1508.22 429.297 1508.51 429.532C1508.84 429.767 1509 430.133 1509 430.632V440.268C1509 441.999 1508.63 443.392 1507.9 444.448C1507.16 445.504 1506.23 446.267 1505.08 446.736C1503.94 447.205 1502.73 447.44 1501.47 447.44C1500.07 447.44 1498.79 447.205 1497.65 446.736C1496.53 446.267 1495.65 445.504 1495.01 444.448C1494.36 443.363 1494.04 441.955 1494.04 440.224V430.632C1494.04 430.133 1494.2 429.781 1494.52 429.576C1494.84 429.341 1495.2 429.224 1495.58 429.224C1495.96 429.224 1496.3 429.341 1496.59 429.576C1496.91 429.781 1497.07 430.133 1497.07 430.632V440.224C1497.07 441.779 1497.45 442.923 1498.22 443.656C1499.01 444.36 1500.09 444.712 1501.47 444.712C1502.71 444.712 1503.76 444.36 1504.64 443.656C1505.52 442.923 1505.96 441.793 1505.96 440.268V430.632ZM1516.02 447.44C1515.58 447.44 1515.22 447.308 1514.92 447.044C1514.63 446.78 1514.48 446.443 1514.48 446.032V430.632C1514.48 430.192 1514.63 429.84 1514.92 429.576C1515.22 429.312 1515.58 429.18 1516.02 429.18C1516.49 429.18 1516.86 429.312 1517.12 429.576C1517.42 429.84 1517.56 430.192 1517.56 430.632V435.076C1517.56 435.956 1517.97 436.396 1518.8 436.396H1525.13C1525.95 436.396 1526.36 435.956 1526.36 435.076V430.632C1526.36 430.192 1526.5 429.84 1526.76 429.576C1527.05 429.312 1527.43 429.18 1527.9 429.18C1528.37 429.18 1528.74 429.312 1529 429.576C1529.3 429.84 1529.44 430.192 1529.44 430.632V446.032C1529.44 446.443 1529.3 446.78 1529 447.044C1528.74 447.308 1528.37 447.44 1527.9 447.44C1527.43 447.44 1527.05 447.308 1526.76 447.044C1526.5 446.78 1526.36 446.443 1526.36 446.032V440.444C1526.36 439.564 1525.95 439.124 1525.13 439.124H1518.8C1517.97 439.124 1517.56 439.564 1517.56 440.444V446.032C1517.56 446.443 1517.42 446.78 1517.12 447.044C1516.86 447.308 1516.49 447.44 1516.02 447.44Z" fill="#676767"/>
<g id="SPACETRONIC">
<path d="M593 559.99C595.956 557.31 598.941 554.64 601.917 551.949C607.819 551.949 616.741 551.949 622.682 551.949C624.495 554.64 626.318 557.31 628.151 560C617.421 560 603.671 559.99 593 559.99ZM631.077 556.725C628.968 554.146 626.84 551.587 624.722 549.037C625.865 542.931 626.988 536.815 628.101 530.709C631.116 528.271 634.151 525.833 637.186 523.384C635.176 534.498 633.156 545.612 631.077 556.725ZM606.454 526.085C605.035 524.684 603.587 523.324 602.129 521.984C604.021 520.664 605.932 519.334 607.853 518.034C614.386 518.034 622.909 518.034 629.451 518.034C630.919 519.334 632.368 520.654 633.836 521.974C631.895 523.334 629.993 524.704 628.052 526.085C621.5 526.085 612.967 526.085 606.454 526.085ZM607.144 484.249C617.963 484.239 629.791 484.239 640.639 484.249C637.772 486.92 634.905 489.62 632.047 492.3C626.136 492.31 619.214 492.31 613.273 492.31C611.213 489.62 609.203 486.93 607.144 484.249ZM598.917 520.785C600.739 509.671 602.523 498.557 604.306 487.464C606.523 489.852 608.72 492.27 610.928 494.688C609.932 500.844 608.918 507.011 607.883 513.187C604.878 515.696 601.892 518.225 598.917 520.785Z" fill="#6A5E5F"/>
<path d="M654.212 523.394C656.35 525.974 658.488 528.563 660.617 531.153C659.493 537.229 658.37 546.314 657.217 552.41C654.163 554.849 651.118 557.287 648.074 559.715C650.143 548.602 652.173 534.488 654.212 523.394ZM662.026 526.085C660.627 524.644 659.178 523.253 657.73 521.974C659.651 520.654 661.582 519.334 663.504 518.034C670.145 518.034 681.746 518.034 688.377 518.024C689.835 519.334 691.284 520.664 692.722 521.984C690.781 523.324 688.83 524.704 686.889 526.085C680.278 526.075 668.676 526.085 662.026 526.085ZM663.307 484.239C674.155 484.249 689.983 484.239 700.802 484.239C697.945 486.92 695.107 489.62 692.269 492.31C686.269 492.31 675.288 492.31 669.307 492.31C667.297 489.62 665.317 486.93 663.307 484.239ZM654.478 520.785C656.469 509.661 658.439 498.557 660.41 487.464C662.597 489.862 664.794 492.25 666.992 494.678C665.898 500.844 664.775 507.021 663.671 513.177C660.607 515.696 657.552 518.246 654.478 520.785ZM702.536 487.464C700.526 498.567 698.477 509.661 696.437 520.775C694.269 518.356 692.102 515.948 689.924 513.56C691.057 507.414 692.171 501.258 693.284 495.142C696.378 492.572 699.452 490.013 702.536 487.464Z" fill="#6A5E5F"/>
<path d="M713.03 523.394C715.148 525.974 717.267 528.563 719.385 531.143C718.232 537.239 717.06 546.314 715.897 552.42C712.813 554.839 709.749 557.287 706.675 559.715C708.813 548.602 710.941 534.488 713.03 523.394ZM748.427 559.725C746.348 557.146 744.259 554.597 742.131 552.037C743.333 545.931 744.515 536.815 745.697 530.709C748.771 528.261 751.865 525.833 754.93 523.394C752.762 534.488 750.614 548.612 748.427 559.725ZM720.932 526.075C719.494 524.694 718.045 523.324 716.547 521.984C718.508 520.664 720.479 519.334 722.449 518.034C729.051 518.024 740.653 518.024 747.254 518.024C748.693 519.334 750.131 520.654 751.589 521.984C749.619 523.334 747.678 524.714 745.707 526.075C739.115 526.075 727.534 526.085 720.932 526.075ZM722.41 484.239C733.268 484.239 749.126 484.249 759.974 484.249C757.048 486.92 754.161 489.62 751.245 492.3C745.303 492.31 734.362 492.31 728.42 492.31C726.42 489.61 724.42 486.92 722.41 484.239ZM713.286 520.775C715.365 509.661 717.444 498.567 719.474 487.454C721.661 489.852 723.858 492.27 726.006 494.678C724.873 500.844 723.711 507.021 722.558 513.177C719.484 515.696 716.38 518.225 713.286 520.775ZM761.551 487.454C759.452 498.567 757.354 509.671 755.225 520.775C753.067 518.356 750.91 515.948 748.771 513.56C749.924 507.414 751.097 501.268 752.22 495.131C755.343 492.572 758.447 490.023 761.551 487.454Z" fill="#6A5E5F"/>
<path d="M767.985 559.99C771 557.31 774.015 554.64 777.03 551.949C782.972 551.949 792.933 551.949 798.894 551.949C800.697 554.64 802.5 557.31 804.323 559.99C793.534 559.99 778.745 559.99 767.985 559.99ZM773.119 523.384C775.198 525.974 777.277 528.563 779.366 531.143C778.154 537.229 776.942 543.324 775.73 549.41C772.656 551.849 769.591 554.277 766.527 556.725C768.754 545.602 770.941 534.498 773.119 523.384ZM782.686 484.249C793.505 484.249 804.353 484.239 815.172 484.239C812.314 486.92 809.437 489.62 806.55 492.31C800.55 492.31 794.559 492.31 788.568 492.31C786.627 489.61 784.647 486.92 782.686 484.249ZM773.414 520.785C775.552 509.661 777.7 498.567 779.819 487.464C781.957 489.862 784.085 492.25 786.213 494.678C785.041 500.844 783.849 507.021 782.656 513.177C779.572 515.696 776.498 518.246 773.414 520.785Z" fill="#6A5E5F"/>
<path d="M818.881 560C821.926 557.31 824.971 554.619 828.005 551.949C833.966 551.949 842.937 551.949 848.879 551.949C850.692 554.619 852.475 557.31 854.249 559.99C843.469 559.99 829.68 560 818.881 560ZM824.281 523.384C826.33 525.964 828.419 528.553 830.469 531.153C829.237 537.229 827.986 543.324 826.734 549.42C823.63 551.849 820.537 554.277 817.462 556.725C819.758 545.602 822.024 534.498 824.281 523.384ZM832.084 526.085C830.606 524.634 829.178 523.253 827.838 521.984C829.789 520.664 831.749 519.334 833.72 518.024C840.322 518.034 849.943 518.034 856.574 518.024C857.993 519.334 859.421 520.654 860.84 521.984C858.86 523.324 856.899 524.704 854.919 526.085C848.297 526.085 838.686 526.085 832.084 526.085ZM834.045 484.239C844.884 484.249 858.712 484.249 869.55 484.249C866.644 486.93 863.777 489.62 860.899 492.31C854.899 492.31 845.908 492.31 839.908 492.31C837.957 489.61 836.006 486.92 834.045 484.239ZM824.576 520.775C826.783 509.661 828.991 498.557 831.168 487.464C833.296 489.862 835.434 492.27 837.553 494.678C836.331 500.844 835.109 507.021 833.878 513.177C830.784 515.696 827.68 518.246 824.576 520.775Z" fill="#6A5E5F"/>
<path d="M934.497 533.936C933.413 539.428 931.3 547.909 930.236 553.42C927.112 555.849 923.989 558.287 920.875 560.725C923.072 549.602 926.279 535.498 928.496 524.384C930.497 527.578 932.497 530.752 934.497 533.936ZM928.496 524.384C930.605 526.964 932.733 529.553 934.861 532.143C933.64 538.239 931.418 547.314 930.236 553.42C927.112 555.849 923.989 558.287 920.875 560.725C923.072 549.602 926.279 535.498 928.496 524.384ZM936.369 527.085C934.96 525.644 933.512 524.253 932.073 522.974C934.024 521.664 935.995 520.334 937.965 519.034C944.646 519.024 954.306 519.034 960.987 519.034C962.445 520.334 963.874 521.654 965.332 522.984C963.351 524.334 961.381 525.704 959.41 527.085C952.72 527.085 943.049 527.085 936.369 527.085ZM938.359 485.239C949.188 485.249 963.046 485.239 973.904 485.239C971.007 487.93 968.11 490.61 965.233 493.31C959.243 493.31 950.213 493.31 944.212 493.3C942.261 490.61 940.31 487.92 938.359 485.239ZM928.792 521.785C930.989 510.661 933.196 499.557 935.394 488.464C937.542 490.862 939.709 493.25 941.867 495.678C940.635 501.844 939.423 508.021 938.202 514.177C935.068 516.696 931.915 519.246 928.792 521.785ZM975.599 488.464C973.431 499.567 971.234 510.661 969.066 521.775C966.918 519.356 964.76 516.948 962.593 514.55C963.795 508.414 965.007 502.268 966.219 496.131C969.352 493.572 972.475 491.013 975.599 488.464Z" fill="#6A5E5F"/>
<path d="M980.939 559.99C983.964 557.31 987.009 554.64 990.053 551.949C996.084 551.949 1006.11 551.949 1012.13 551.949C1014 554.619 1015.85 557.31 1017.72 559.99C1006.78 560 991.857 560 980.939 559.99ZM985.817 523.394C987.945 525.974 990.093 528.563 992.251 531.153C991.058 537.229 989.866 543.324 988.694 549.41C985.59 551.839 982.486 554.277 979.353 556.725C981.511 545.612 983.679 534.498 985.817 523.394ZM1020.7 556.715C1018.53 554.146 1016.39 551.597 1014.25 549.037C1015.42 542.931 1016.59 536.815 1017.77 530.709C1020.87 528.271 1023.96 525.833 1027.07 523.384C1024.94 534.498 1022.81 545.612 1020.7 556.715ZM995.561 484.249C1006.42 484.239 1021.3 484.249 1032.17 484.239C1029.25 486.93 1026.32 489.61 1023.4 492.31C1017.43 492.3 1007.48 492.3 1001.51 492.31C999.522 489.61 997.542 486.92 995.561 484.249ZM986.112 520.775C988.28 509.661 990.428 498.567 992.586 487.454C994.773 489.852 996.921 492.25 999.089 494.688C997.867 500.844 996.675 507.021 995.483 513.177C992.369 515.696 989.246 518.246 986.112 520.775ZM1033.74 487.454C1031.61 498.567 1029.48 509.671 1027.35 520.785C1025.18 518.356 1023.02 515.948 1020.84 513.56C1022.03 507.404 1023.21 501.258 1024.38 495.131C1027.49 492.572 1030.63 490.023 1033.74 487.454Z" fill="#6A5E5F"/>
<path d="M1047.82 521.057C1049.95 509.892 1052.08 495.738 1054.21 484.584C1056.36 487.033 1058.53 489.491 1060.68 491.96C1059.52 498.096 1058.34 507.232 1057.17 513.369C1054.06 515.938 1050.94 518.487 1047.82 521.057ZM1095.64 484.584C1093.54 495.738 1091.45 508.882 1089.36 520.057C1087.2 517.598 1085.03 515.14 1082.85 512.681C1084 506.565 1085.15 498.439 1086.29 492.313C1089.42 489.743 1092.53 487.154 1095.64 484.584ZM1047.1 524.586C1049.26 527.145 1051.41 529.714 1053.56 532.274C1052.4 538.4 1051.24 545.546 1050.07 551.692C1046.96 554.131 1043.86 556.549 1040.76 558.987C1042.89 547.863 1044.98 535.73 1047.1 524.586ZM1082.42 559.987C1080.26 557.398 1078.11 554.808 1075.95 552.249C1077.1 546.113 1078.25 537.997 1079.4 531.891C1082.48 529.462 1085.57 527.034 1088.68 524.586C1086.59 535.73 1084.51 548.863 1082.42 559.987Z" fill="#6A5E5F"/>
<path d="M1107.72 559.715C1105.54 557.146 1103.39 554.597 1101.24 552.037C1102.38 545.931 1103.52 538.805 1104.65 532.699C1107.74 530.261 1110.82 527.833 1113.92 525.394C1111.86 536.498 1109.78 548.602 1107.72 559.715ZM1121.43 484.454C1119.36 495.557 1117.29 509.671 1115.26 520.775C1113.06 518.356 1110.89 515.948 1108.68 513.55C1109.84 507.414 1110.97 498.258 1112.12 492.142C1115.22 489.572 1118.33 487.013 1121.43 484.454Z" fill="#6A5E5F"/>
<path d="M1126.51 559.99C1129.56 557.31 1132.58 554.64 1135.6 551.949C1141.66 551.949 1151.73 551.949 1157.77 551.949C1159.66 554.64 1161.54 557.31 1163.43 559.99C1152.46 560 1137.5 560 1126.51 559.99ZM1131.21 524.384C1133.35 526.964 1135.5 529.553 1137.67 532.153C1136.52 538.239 1135.39 543.324 1134.26 549.42C1131.18 551.849 1128.09 554.287 1125.02 556.715C1127.09 545.612 1129.15 535.498 1131.21 524.384ZM1140.42 484.249C1151.28 484.239 1165.14 484.249 1176 484.249C1173.16 486.92 1170.31 489.61 1167.49 492.3C1161.45 492.31 1152.43 492.3 1146.41 492.3C1144.39 489.62 1142.41 486.92 1140.42 484.249ZM1131.47 521.785C1133.48 510.661 1135.53 498.557 1137.55 487.464C1139.74 489.852 1141.9 492.27 1144.07 494.688C1142.96 500.844 1141.82 508.011 1140.73 514.187C1137.64 516.696 1134.56 519.246 1131.47 521.785Z" fill="#6A5E5F"/>
<path d="M878.5 488.464C879.998 489.804 881.446 491.174 882.885 492.554C889.486 492.565 907.67 492.554 914.261 492.554C916.232 491.194 918.173 489.814 920.143 488.464C918.685 487.134 917.247 485.814 915.808 484.504C909.207 484.504 891.004 484.504 884.402 484.514C882.431 485.814 880.461 487.144 878.5 488.464Z" fill="#6A5E5F"/>
<path d="M1064.72 488.687C1064.17 490.535 1063.54 492.439 1062.84 494.329L1071.41 512.444C1073.5 513.634 1075.58 514.83 1077.65 516.042C1078.23 514.155 1078.81 512.299 1079.36 510.425C1076.5 504.387 1073.66 498.362 1070.8 492.328C1068.78 491.103 1066.73 489.89 1064.72 488.687Z" fill="#6A5E5F"/>
<path d="M939.5 530.834C938.5 532.5 938 535 938.89 536.748L956.128 558.34C958.427 559.049 960.5 559.5 962 559.5C962.5 558 963.321 556.594 963.453 554.645C959.353 549.37 950.333 538.337 946.226 533.069C944.737 531.159 941 530 939.5 530.834Z" fill="#6A5E5F"/>
<path d="M892.059 525.801C890.528 526.969 888.886 528.125 887.203 529.233L882.376 552.905C883.354 555.103 884.323 557.299 885.27 559.501C886.854 558.324 888.423 557.173 889.977 555.99C891.253 549.433 893.535 538.897 894.801 532.337C893.901 530.155 892.972 527.966 892.059 525.801Z" fill="#6A5E5F"/>
<path d="M897.5 495.5C896 495.5 894.642 496.109 892.958 497.217L889.131 516.889C890.11 519.087 891.078 521.283 892.025 523.485C893.609 522.308 895.178 521.157 896.732 519.974C898.008 513.417 899.29 506.88 900.556 500.321C900 498 898.5 496.5 897.5 495.5Z" fill="#6A5E5F"/>
</g>
<path id="border" d="M568.451 521H285.749C255.512 521 231 545.417 231 575.536V1524.46C231 1554.58 255.512 1579 285.749 1579H1483.25C1513.49 1579 1538 1554.58 1538 1524.46V575.536C1538 545.417 1513.49 521 1483.25 521H1200.5" stroke="url(#paint10_linear_0_1)" stroke-width="10"/>
</g>
<g id="buttons">
<rect id="button1Groove" x="1303.5" y="1781.5" width="275" height="167" rx="42.5" fill="#12110F" stroke="url(#paint11_linear_0_1)" stroke-width="3"/>
<rect id="button1" x="1319" y="1797" width="244" height="136" rx="28" fill="url(#paint12_linear_0_1)" stroke="url(#paint13_linear_0_1)" stroke-width="12"/>
<rect id="button2Groove" x="932.5" y="1781.5" width="275" height="167" rx="42.5" fill="#12110F" stroke="url(#paint14_linear_0_1)" stroke-width="3"/>
<rect id="button2" x="948" y="1797" width="244" height="136" rx="28" fill="url(#paint15_linear_0_1)" stroke="url(#paint16_linear_0_1)" stroke-width="12"/>
<rect id="button3Groove" x="569.5" y="1781.5" width="275" height="167" rx="42.5" fill="#12110F" stroke="url(#paint17_linear_0_1)" stroke-width="3"/>
<rect id="button3" x="585" y="1797" width="244" height="136" rx="28" fill="url(#paint18_linear_0_1)" stroke="url(#paint19_linear_0_1)" stroke-width="12"/>
<rect id="button0Groove" x="198.5" y="1781.5" width="275" height="167" rx="42.5" fill="#12110F" stroke="url(#paint20_linear_0_1)" stroke-width="3"/>
<rect id="button0" x="214" y="1797" width="244" height="136" rx="28" fill="url(#paint21_linear_0_1)" stroke="url(#paint22_linear_0_1)" stroke-width="12"/>
</g>
<rect id="charIndentBounds" x="466" y="855" width="13.5" height="17.5" fill="#D3D3C7"/>
<rect id="dotIndentBounds" x="390" y="710" width="3.8" height="3.8" fill="#D3D3C7"/>
<rect id="dotBounds" x="374" y="686" width="15.2" height="20.3" fill="#D3D3C7"/>
<defs>
<linearGradient id="paint0_linear_0_1" x1="889.25" y1="14.5" x2="889.25" y2="2192.5" gradientUnits="userSpaceOnUse">
<stop stop-color="#D3D3D3"/>
<stop offset="0.0709461" stop-color="#B2B2B2"/>
<stop offset="0.0761732" stop-color="#E9E8E8"/>
<stop offset="0.922149" stop-color="#B1B1B1"/>
<stop offset="0.925512" stop-color="#989898"/>
<stop offset="1" stop-color="#5C5C5C"/>
</linearGradient>
<linearGradient id="paint1_linear_0_1" x1="889.25" y1="14.5" x2="889.25" y2="2192.5" gradientUnits="userSpaceOnUse">
<stop stop-color="#EFEEEE"/>
<stop offset="0.0781004" stop-color="#DDDDDD"/>
<stop offset="0.922517" stop-color="#A2A2A2"/>
<stop offset="1" stop-color="#464646"/>
</linearGradient>
<linearGradient id="paint2_linear_0_1" x1="888.5" y1="221" x2="888.5" y2="1996" gradientUnits="userSpaceOnUse">
<stop stop-color="#D5D5D5"/>
<stop offset="0.0540227" stop-color="#AEAEAE"/>
<stop offset="0.0757568" stop-color="#A2A2A2"/>
<stop offset="0.888281" stop-color="#8C8C8C"/>
<stop offset="1" stop-color="#626262"/>
</linearGradient>
<linearGradient id="paint3_linear_0_1" x1="888.5" y1="313" x2="888.5" y2="1996" gradientUnits="userSpaceOnUse">
<stop stop-color="#E1E1E1"/>
<stop offset="0.85182" stop-color="#AAAAAA"/>
<stop offset="0.857562" stop-color="#A1A1A1"/>
<stop offset="1" stop-color="#767676"/>
</linearGradient>
<linearGradient id="paint4_linear_0_1" x1="888.5" y1="313" x2="888.5" y2="1996" gradientUnits="userSpaceOnUse">
<stop stop-color="#FAFAFA"/>
<stop offset="0.0955775" stop-color="#BBBBBB"/>
<stop offset="0.85457" stop-color="#A8A8A8"/>
<stop offset="1" stop-color="#616161"/>
</linearGradient>
<linearGradient id="paint5_linear_0_1" x1="884.75" y1="362" x2="884.75" y2="1719" gradientUnits="userSpaceOnUse">
<stop stop-color="#5E5E64"/>
<stop offset="1" stop-color="#434347"/>
</linearGradient>
<linearGradient id="paint6_linear_0_1" x1="885.498" y1="364.486" x2="885.498" y2="1716.02" gradientUnits="userSpaceOnUse">
<stop stop-color="#2C2C31"/>
<stop offset="0.106984" stop-color="#9F9F9F"/>
<stop offset="0.898698" stop-color="#919191"/>
<stop offset="1" stop-color="#ECECEC"/>
</linearGradient>
<linearGradient id="paint7_linear_0_1" x1="885" y1="398" x2="885" y2="1684" gradientUnits="userSpaceOnUse">
<stop stop-color="#DDD3AA"/>
<stop offset="1" stop-color="#B5A168"/>
</linearGradient>
<linearGradient id="paint8_linear_0_1" x1="885" y1="398" x2="885" y2="1684" gradientUnits="userSpaceOnUse">
<stop stop-color="#BDAA7E"/>
<stop offset="0.131191" stop-color="#BAA980"/>
<stop offset="0.88539" stop-color="#B8A67B"/>
<stop offset="1" stop-color="#E1D19C"/>
</linearGradient>
<linearGradient id="paint9_linear_0_1" x1="888.5" y1="604" x2="888.5" y2="1478" gradientUnits="userSpaceOnUse">
<stop stop-color="#949070"/>
<stop offset="0.109375" stop-color="#BBB68D"/>
<stop offset="0.864583" stop-color="#BBB68D"/>
<stop offset="1" stop-color="#EDE9B4"/>
</linearGradient>
<linearGradient id="paint10_linear_0_1" x1="884.5" y1="521" x2="884.5" y2="1579" gradientUnits="userSpaceOnUse">
<stop stop-color="#695D5E"/>
<stop offset="1" stop-color="#42322C"/>
</linearGradient>
<linearGradient id="paint11_linear_0_1" x1="1441" y1="1783" x2="1441" y2="1947" gradientUnits="userSpaceOnUse">
<stop stop-color="#828282"/>
<stop offset="1" stop-color="#A3A3A3"/>
</linearGradient>
<linearGradient id="paint12_linear_0_1" x1="1441" y1="1791" x2="1441" y2="1939" gradientUnits="userSpaceOnUse">
<stop stop-color="#CFCFCF"/>
<stop offset="1" stop-color="#878787"/>
</linearGradient>
<linearGradient id="paint13_linear_0_1" x1="1441" y1="1791" x2="1441" y2="1939" gradientUnits="userSpaceOnUse">
<stop stop-color="#ECECEC"/>
<stop offset="1" stop-color="#555555"/>
</linearGradient>
<linearGradient id="paint14_linear_0_1" x1="1070" y1="1783" x2="1070" y2="1947" gradientUnits="userSpaceOnUse">
<stop stop-color="#828282"/>
<stop offset="1" stop-color="#A3A3A3"/>
</linearGradient>
<linearGradient id="paint15_linear_0_1" x1="1070" y1="1791" x2="1070" y2="1939" gradientUnits="userSpaceOnUse">
<stop stop-color="#CFCFCF"/>
<stop offset="1" stop-color="#878787"/>
</linearGradient>
<linearGradient id="paint16_linear_0_1" x1="1070" y1="1791" x2="1070" y2="1939" gradientUnits="userSpaceOnUse">
<stop stop-color="#ECECEC"/>
<stop offset="1" stop-color="#555555"/>
</linearGradient>
<linearGradient id="paint17_linear_0_1" x1="707" y1="1783" x2="707" y2="1947" gradientUnits="userSpaceOnUse">
<stop stop-color="#828282"/>
<stop offset="1" stop-color="#A3A3A3"/>
</linearGradient>
<linearGradient id="paint18_linear_0_1" x1="707" y1="1791" x2="707" y2="1939" gradientUnits="userSpaceOnUse">
<stop stop-color="#CFCFCF"/>
<stop offset="1" stop-color="#878787"/>
</linearGradient>
<linearGradient id="paint19_linear_0_1" x1="707" y1="1791" x2="707" y2="1939" gradientUnits="userSpaceOnUse">
<stop stop-color="#ECECEC"/>
<stop offset="1" stop-color="#555555"/>
</linearGradient>
<linearGradient id="paint20_linear_0_1" x1="336" y1="1783" x2="336" y2="1947" gradientUnits="userSpaceOnUse">
<stop stop-color="#828282"/>
<stop offset="1" stop-color="#A3A3A3"/>
</linearGradient>
<linearGradient id="paint21_linear_0_1" x1="336" y1="1791" x2="336" y2="1939" gradientUnits="userSpaceOnUse">
<stop stop-color="#CFCFCF"/>
<stop offset="1" stop-color="#878787"/>
</linearGradient>
<linearGradient id="paint22_linear_0_1" x1="336" y1="1791" x2="336" y2="1939" gradientUnits="userSpaceOnUse">
<stop stop-color="#ECECEC"/>
<stop offset="1" stop-color="#555555"/>
</linearGradient>
</defs>
</svg>
